<?xml version="1.0" standalone="no"?>
<!DOCTYPE svg PUBLIC "-//W3C//DTD SVG 20010904//EN"
 "http://www.w3.org/TR/2001/REC-SVG-20010904/DTD/svg10.dtd">
<svg version="1.0" xmlns="http://www.w3.org/2000/svg"
 width="700.000000pt" height="700.000000pt" viewBox="0 0 700.000000 700.000000"
 preserveAspectRatio="xMidYMid meet">
<metadata>
Created by potrace 1.14, written by Peter Selinger 2001-2017
</metadata>
<g transform="translate(0.000000,700.000000) scale(0.100000,-0.100000)"
fill="#000000" stroke="none">
<path d="M3420 6739 c-23 -41 -50 -88 -60 -105 -10 -18 -145 -252 -300 -520
-155 -269 -315 -545 -355 -614 -40 -69 -86 -148 -102 -176 -15 -28 -93 -164
-173 -301 l-145 -250 -58 52 c-117 106 -267 126 -399 53 -20 -12 -115 -100
-211 -197 -155 -157 -176 -183 -196 -236 -35 -92 -31 -186 11 -270 11 -22 74
-94 139 -160 111 -113 118 -122 105 -141 -54 -77 -178 -362 -206 -477 -7 -26
-16 -50 -21 -53 -5 -3 -78 -6 -161 -6 -102 -1 -170 -6 -203 -16 -108 -31 -196
-122 -223 -232 -4 -14 -7 -142 -7 -285 l0 -260 29 -57 c33 -67 98 -131 164
-161 41 -19 69 -22 227 -25 l180 -4 39 -120 c35 -106 134 -324 183 -400 l17
-28 -122 -123 c-141 -143 -172 -196 -173 -300 -2 -132 19 -167 225 -375 206
-209 247 -234 378 -233 110 2 157 28 311 181 l139 136 81 -42 c97 -50 241
-104 352 -133 43 -12 83 -25 87 -29 4 -4 9 -98 10 -208 l3 -200 33 -66 c37
-76 83 -120 162 -157 55 -26 55 -26 320 -26 l265 0 68 33 c101 50 168 142 181
249 3 21 5 123 5 226 1 141 4 188 14 191 92 25 286 109 410 178 l58 32 147
-146 c81 -80 161 -155 179 -167 84 -57 196 -68 298 -31 54 20 78 41 241 204
209 208 240 257 235 376 -4 117 -30 158 -214 346 -89 91 -162 169 -161 172 0
4 23 54 51 112 28 58 69 159 92 225 40 119 41 120 73 122 18 2 130 4 248 5
214 3 215 3 273 32 76 38 139 109 165 186 19 54 20 82 19 317 l-2 258 -34 63
c-40 74 -84 115 -161 151 -54 25 -60 26 -290 28 -129 1 -238 2 -242 2 -4 1
-17 34 -29 74 -23 79 -91 248 -136 340 l-28 57 163 164 c163 164 193 206 207
286 15 83 1 165 -38 230 -31 52 -335 358 -386 387 -87 52 -208 57 -306 14 -23
-10 -77 -52 -120 -93 -75 -72 -80 -74 -90 -54 -6 11 -131 228 -277 481 -146
253 -275 477 -286 497 -12 20 -32 54 -45 75 -13 21 -39 65 -57 98 -18 33 -98
173 -178 310 -80 138 -155 268 -168 290 -12 22 -58 102 -102 179 l-80 138 -42
-73z m249 -2880 c203 -48 364 -139 516 -293 210 -213 308 -458 301 -756 -3
-143 -6 -163 -30 -256 -83 -314 -316 -581 -618 -707 l-38 -16 15 34 c54 131
72 373 40 546 -22 115 -96 281 -172 387 -48 65 -83 104 -232 262 -105 111
-151 215 -157 350 -6 155 43 276 162 396 l74 75 46 -6 c26 -3 67 -10 93 -16z
m-711 -152 c-33 -101 -43 -163 -42 -282 0 -117 8 -167 45 -276 35 -105 111
-240 168 -298 82 -85 232 -252 257 -287 68 -95 106 -219 107 -349 1 -110 -12
-165 -75 -320 -26 -66 -48 -122 -48 -124 0 -9 -134 11 -217 34 -252 67 -475
233 -621 460 -30 47 -89 175 -106 230 -10 33 -21 67 -23 75 -30 96 -37 334
-13 455 54 270 222 528 438 672 42 27 147 90 158 93 0 0 -12 -37 -28 -83z"/>
</g>
</svg>
