<?xml version="1.0" standalone="no"?>
<!DOCTYPE svg PUBLIC "-//W3C//DTD SVG 20010904//EN"
 "http://www.w3.org/TR/2001/REC-SVG-20010904/DTD/svg10.dtd">
<svg version="1.0" xmlns="http://www.w3.org/2000/svg"
 width="700.000000pt" height="700.000000pt" viewBox="0 0 700.000000 700.000000"
 preserveAspectRatio="xMidYMid meet">
<metadata>
Created by potrace 1.14, written by Peter Selinger 2001-2017
</metadata>
<g transform="translate(0.000000,700.000000) scale(0.100000,-0.100000)"
fill="#000000" stroke="none">
<path d="M3495 6468 c-26 -46 -100 -174 -164 -286 -64 -112 -127 -222 -140
-245 -101 -175 -542 -945 -619 -1079 l-96 -168 -90 89 c-107 104 -140 123
-219 126 -101 4 -120 -9 -348 -236 -114 -114 -215 -222 -224 -240 -10 -18 -20
-58 -22 -91 -9 -98 9 -130 173 -295 79 -80 144 -149 144 -154 0 -4 -13 -30
-28 -56 -45 -77 -117 -232 -142 -308 -13 -38 -27 -74 -31 -79 -4 -5 -110 -9
-236 -10 -192 -1 -233 -4 -259 -18 -52 -28 -94 -68 -117 -112 -21 -40 -22 -51
-22 -356 l0 -315 28 -47 c29 -50 73 -89 122 -109 20 -8 102 -12 240 -13 l209
-1 9 -35 c25 -95 93 -283 129 -354 l40 -79 -155 -156 c-85 -86 -163 -172 -173
-191 -13 -24 -19 -57 -19 -105 0 -58 4 -78 27 -115 14 -25 118 -136 230 -246
176 -175 209 -204 248 -214 74 -20 131 -16 190 15 19 10 97 80 173 156 77 77
142 139 146 139 3 0 22 -10 41 -22 69 -42 227 -116 318 -148 l92 -33 0 -217
c0 -240 7 -279 60 -338 17 -18 47 -42 68 -55 36 -21 47 -22 334 -25 191 -2
311 1 337 8 57 15 120 67 149 123 24 47 25 55 26 260 l2 211 79 22 c111 31
216 70 308 115 l79 39 156 -156 c106 -106 171 -162 200 -175 60 -26 146 -25
197 2 46 24 414 384 453 444 24 35 27 50 27 120 0 103 -6 112 -183 290 l-140
139 25 39 c42 66 119 232 153 327 l33 90 214 0 c225 0 272 6 319 43 98 76 102
95 100 457 -1 289 -1 296 -24 340 -29 54 -63 85 -120 111 -39 17 -68 19 -253
19 -171 0 -209 3 -209 14 0 40 -77 259 -136 385 l-34 73 150 151 c164 162 195
209 199 292 4 93 -18 124 -247 354 -186 186 -215 210 -262 226 -104 35 -186 7
-290 -99 -73 -74 -69 -74 -117 14 -17 30 -171 300 -343 600 -172 300 -321 559
-330 575 -9 17 -49 86 -89 154 -39 68 -71 124 -71 126 0 3 -74 129 -91 155 -5
8 -16 29 -25 45 -8 17 -28 53 -45 80 -16 28 -35 60 -41 73 -6 12 -15 22 -19
22 -4 0 -28 -37 -54 -82z m270 -2217 c102 -20 202 -50 265 -78 349 -154 606
-410 750 -747 129 -304 142 -680 34 -988 -55 -159 -163 -346 -263 -458 -38
-42 -41 -44 -42 -20 0 14 -2 32 -4 40 -2 8 -6 31 -9 50 -32 179 -131 396 -248
545 -66 84 -186 200 -266 258 -42 30 -169 109 -282 174 -113 66 -221 129 -240
141 -55 34 -239 211 -288 277 -57 77 -94 151 -123 245 -31 99 -33 290 -4 390
30 106 49 137 92 150 48 13 187 38 233 42 99 9 302 -2 395 -21z m-1309 -517
c3 -27 10 -69 16 -94 5 -25 12 -58 15 -74 15 -90 109 -296 190 -419 47 -72
283 -317 378 -394 28 -22 88 -63 135 -92 47 -28 92 -56 100 -61 8 -5 29 -17
45 -26 207 -114 326 -193 395 -263 99 -100 176 -235 195 -340 3 -19 9 -39 12
-44 3 -5 7 -87 9 -181 l4 -172 -33 -11 c-43 -16 -104 -31 -147 -38 -19 -3 -60
-9 -90 -14 -30 -5 -116 -9 -190 -9 -307 0 -577 93 -840 287 -43 32 -45 34
-114 99 -222 213 -362 488 -413 808 -10 63 -10 314 -1 379 31 201 88 364 191
535 33 55 128 182 133 178 2 -3 7 -27 10 -54z"/>
</g>
</svg>
