<svg width="370" height="370" fill="none" xmlns="http://www.w3.org/2000/svg"><path d="m183 10 86.603 150H96.397L183 10z" fill="#4DA2FF"/><g clip-path="url(#a)"><path fill-rule="evenodd" clip-rule="evenodd" d="M212.435 117.094a106.785 106.785 0 0 1 25.954 11.758l13.968-14.037a17.317 17.317 0 0 1 24.427 0l14.31 14.378a17.32 17.32 0 0 1 0 24.427l-15.039 15.04a106.145 106.145 0 0 1 9.889 24.905h21.693a17.327 17.327 0 0 1 12.275 5.056A17.317 17.317 0 0 1 325 210.883v20.28a17.32 17.32 0 0 1-17.272 17.272H285.83a106.69 106.69 0 0 1-9.958 24.632l15.222 15.29a17.317 17.317 0 0 1 0 24.427l-14.287 14.31a17.343 17.343 0 0 1-24.45 0l-14.447-14.47a107.575 107.575 0 0 1-25.498 11.394v19.573a17.315 17.315 0 0 1-17.272 17.272h-20.257a17.315 17.315 0 0 1-17.272-17.272v-17.682a107.984 107.984 0 0 1-28.142-10.664l-11.849 11.849a17.36 17.36 0 0 1-24.427 0l-14.378-14.379a17.338 17.338 0 0 1 0-24.427l10.755-10.755a107.967 107.967 0 0 1-12.669-29.098H62.272A17.32 17.32 0 0 1 45 231.163v-20.28a17.32 17.32 0 0 1 17.272-17.318h14.47a107.567 107.567 0 0 1 12.555-29.486L78.815 153.62a17.36 17.36 0 0 1 0-24.427l14.378-14.378a17.319 17.319 0 0 1 24.427 0l11.394 11.393a106.193 106.193 0 0 1 28.551-11.028V98.272A17.319 17.319 0 0 1 174.883 81h20.28a17.319 17.319 0 0 1 17.272 17.272v18.822zM181.4 164.581a56.055 56.055 0 1 1-56.055 56.032 56.033 56.033 0 0 1 56.055-56.032z" fill="#4DA2FF"/></g><path d="M172.233 290.743c-2.075 5.118.392 10.949 5.51 13.024 5.118 2.075 10.949-.392 13.024-5.51l-18.534-7.514zm-5.525-69.95 8.962 9.5 14.548-13.725-8.963-9.5-14.547 13.725zm15.63 45.022-10.105 24.928 18.534 7.514 10.106-24.928-18.535-7.514zm-3.836-120.959-10.5 10.286 13.995 14.288 10.501-10.286-13.996-14.288zm-2.832 85.437a33.456 33.456 0 0 1 8.469 16.394l19.612-3.922a53.458 53.458 0 0 0-13.533-26.197l-14.548 13.725zm-1.3-36.82a26.875 26.875 0 0 1 7.627-24.043l-13.995-14.288a46.876 46.876 0 0 0-13.304 41.938l19.672-3.607zm9.769 53.214a33.45 33.45 0 0 1-1.801 19.128l18.535 7.514a53.445 53.445 0 0 0 2.878-30.564l-19.612 3.922zm-29.441-49.607a46.87 46.87 0 0 0 12.01 23.713l14.547-13.725a26.877 26.877 0 0 1-6.885-13.595l-19.672 3.607z" fill="#4DA2FF"/><defs><clipPath id="a"><path fill="#fff" transform="translate(45 81)" d="M0 0h280v280H0z"/></clipPath></defs></svg>