<svg width="390" height="390" fill="none" xmlns="http://www.w3.org/2000/svg"><path d="m197.687 24.5 68.8 120h-137.6l68.8-120z" fill="#4DA2FF"/><g clip-path="url(#a)"><path fill-rule="evenodd" clip-rule="evenodd" d="m284.134 125.337 19.581 19.58c5.151 5.151 5.151 13.587 0 18.737l-15.762 15.763a105.611 105.611 0 0 1 9.79 26.085h20.425c7.281 0 13.253 5.972 13.253 13.254v27.684c0 7.281-5.972 13.253-13.253 13.253h-22.29a104.902 104.902 0 0 1-11.544 25.353l14.453 14.452c5.15 5.151 5.15 13.587 0 18.737l-19.581 19.581c-5.151 5.151-13.587 5.151-18.737 0l-15.762-15.762a104.765 104.765 0 0 1-26.086 9.79v20.425c0 7.281-5.972 13.253-13.253 13.253h-27.706c-7.282 0-13.254-5.972-13.254-13.253v-22.29a104.094 104.094 0 0 1-25.353-11.566l-14.452 14.452c-5.151 5.151-13.587 5.151-18.737 0l-19.581-19.58c-5.15-5.151-5.15-13.587 0-18.737l15.762-15.763a104.74 104.74 0 0 1-9.79-26.085H71.832c-7.26 0-13.231-5.972-13.231-13.254v-27.683c0-7.282 5.972-13.254 13.254-13.254h22.289a104.93 104.93 0 0 1 11.544-25.353l-14.452-14.452c-5.15-5.151-5.15-13.587 0-18.737l19.58-19.581c5.151-5.151 13.587-5.151 18.737 0l15.763 15.762a104.743 104.743 0 0 1 26.085-9.79v-20.425c0-7.259 5.972-13.23 13.254-13.23h27.683c7.282 0 13.254 5.971 13.254 13.253v22.267a104.902 104.902 0 0 1 25.353 11.544l14.452-14.453c5.151-5.128 13.587-5.128 18.737.023zM195 151.666c42.758 0 77.435 34.677 77.435 77.435S237.758 306.536 195 306.536s-77.435-34.677-77.435-77.435 34.677-77.435 77.435-77.435z" fill="#4DA2FF"/></g><path d="M219.92 300.938c0 8.836 7.163 16 16 16 8.836 0 16-7.164 16-16h-32zm-57.712-160.079-13.226-9.004 13.226 9.004zm-2.727-24.425-10.499 15.421 26.452 18.008 10.499-15.421-26.452-18.008zM219.92 290.02v10.918h32V290.02h-32zm-60.934-63.789 7.076 6.752 22.09-23.154-7.077-6.751-22.089 23.153zm19.394 16.016 21.19 12.354 16.117-27.645-21.19-12.354-16.117 27.645zm-12.318-9.264a66.037 66.037 0 0 0 12.318 9.264l16.117-27.645a33.976 33.976 0 0 1-6.345-4.773l-22.09 23.154zm78.121 24.33a73.008 73.008 0 0 0-28.496-30.357l-16.117 27.645a40.99 40.99 0 0 1 16.004 17.05l28.609-14.338zm-107.921-84.168a73.368 73.368 0 0 0 22.724 53.086l22.089-23.153a41.371 41.371 0 0 1-12.813-29.933h-32zM251.92 290.02a73.016 73.016 0 0 0-7.737-32.707l-28.609 14.338a40.995 40.995 0 0 1 4.346 18.369h32zM148.982 131.855a73.374 73.374 0 0 0-12.72 41.29h32a41.374 41.374 0 0 1 7.172-23.282l-26.452-18.008z" fill="#4DA2FF"/><defs><clipPath id="a"><path fill="#fff" transform="translate(58.601 92.702)" d="M0 0h272.798v272.798H0z"/></clipPath></defs></svg>